#N canvas 181 173 1109 779 10;
#X obj 221 422 *~;
#X obj 241 447 *~ 2000;
#X obj 212 492 *~;
#X obj 143 491 *~;
#X obj 144 423 mtof;
#X obj 145 470 vcf~ 3;
#X obj 316 417 mtof;
#X obj 122 403 poly 1 1;
#X text 210 236 substraktor;
#X obj 218 473 adsr 3 17 200 50 500;
#X obj 144 528 clip~ -1 1;
#X obj 104 359 r seq\$1;
#X floatatom 112 336 5 0 0 0 - - -;
#X obj 227 399 +~ 1;
#X obj 308 214 loadbang;
#X obj 101 101 cnv 15 97 183 empty empty empty 20 12 0 14 -33289 -66577
0;
#X obj 103 103 cnv 15 93 179 empty empty empty 20 12 0 14 -228856 -66577
0;
#X obj 106 133 hsl 85 10 0 1 0 0 empty empty empty 10 8 0 8 -228856
-33289 -33289 5093 0;
#X obj 108 147 hsl 85 10 0 1 0 0 empty empty empty 10 8 0 8 -191407
-1 -1 1786 0;
#X obj 107 211 hsl 85 10 0 1 0 0 empty empty empty 10 6 0 8 -66577
-1 -1 3109 0;
#X obj 178 106 cnv 8 14 14 empty \$0-met16 \$1 2 7 0 12 -33289 -257985
0;
#X text 742 95 http://servando.teks.no;
#X text 752 105 http://servando.teks.no;
#X text 762 115 http://servando.teks.no;
#X text 772 125 http://servando.teks.no;
#X text 782 135 http://servando.teks.no;
#X text 792 145 http://servando.teks.no;
#X text 802 155 http://servando.teks.no;
#X text 812 165 http://servando.teks.no;
#X text 822 175 http://servando.teks.no;
#X text 832 185 http://servando.teks.no;
#X text 842 195 http://servando.teks.no;
#X text 852 205 http://servando.teks.no;
#X text 862 215 http://servando.teks.no;
#X text 872 225 http://servando.teks.no;
#X text 689 185 http://servando.teks.no;
#X text 699 195 http://servando.teks.no;
#X text 709 205 http://servando.teks.no;
#X text 719 215 http://servando.teks.no;
#X text 729 225 http://servando.teks.no;
#X obj 30 53 loadbang;
#X msg 30 79 0.5;
#X obj 104 104 cnv 8 14 14 empty \$0-met16 s3subter 2 7 0 12 -228856
-99865 0;
#X obj 30 133 ctlin 1 \$1;
#X obj 31 153 / 127;
#X obj 31 193 / 127;
#X obj 30 173 ctlin 2 \$1;
#X obj 31 232 / 127;
#X obj 31 273 / 127;
#X obj 30 212 ctlin 3 \$1;
#X obj 30 253 ctlin 4 \$1;
#X obj 107 183 hsl 85 10 0 1 0 0 empty empty empty 10 6 0 8 -66577
-1 -1 0 0;
#X obj 204 120 spigot;
#X obj 255 120 spigot;
#X obj 303 121 spigot;
#X obj 352 121 spigot;
#X obj 408 139 sel \$1;
#X obj 406 103 r chan, f 10;
#X obj 474 104 r chen;
#X obj 473 140 sel 7;
#X floatatom 29 98 5 0 0 0 - - -;
#X floatatom 29 118 5 0 0 0 - - -;
#X obj 472 122 moses 6;
#X msg 409 159 1;
#X msg 436 159 0;
#X msg 473 158 1;
#X msg 502 158 0, f 4;
#X obj 427 289 tgl 15 0 empty empty empty 17 7 0 10 -262144 -1 -1 1
1;
#X obj 474 175 t b f;
#X obj 442 121 f \$1;
#X obj 407 121 t f b;
#X obj 412 177 +;
#X obj 413 195 sel 2;
#X msg 412 215 1;
#X msg 444 215 0;
#X text 862 215 http://servando.teks.no;
#X text 872 225 http://servando.teks.no;
#X text 882 235 http://servando.teks.no;
#X text 719 215 http://servando.teks.no;
#X text 729 225 http://servando.teks.no;
#X text 739 235 http://servando.teks.no;
#X text 872 225 http://servando.teks.no;
#X text 882 235 http://servando.teks.no;
#X text 892 245 http://servando.teks.no;
#X text 729 225 http://servando.teks.no;
#X text 739 235 http://servando.teks.no;
#X text 749 245 http://servando.teks.no;
#X text 104 116 Timbre;
#X text 103 164 env;
#X obj 519 228 s screenLine3;
#X msg 494 209 .;
#X obj 519 263 s screenLine5;
#X obj 519 246 s screenLine4;
#X obj 519 209 s screenLine2;
#X msg 313 359 0.3;
#X obj 194 333 * 80;
#X obj 194 314 + 0.1;
#X obj 150 299 + 0.1;
#X obj 111 299 + 0.1;
#X obj 156 337 * 17;
#X obj 238 315 + 0.001;
#X obj 144 509 *~ 0.4;
#X floatatom 395 396 5 0 0 0 - - -;
#X obj 240 335 * 66;
#X msg 332 499 1, f 8;
#X obj 122 382 makenote 100 55;
#X obj 253 369 * 5;
#N canvas 353 99 781 654 dlphas 0;
#X obj 69 345 *~ 0.064;
#X obj 69 368 rpole~ 0.93538;
#X obj 69 391 *~ 0.00431;
#X obj 69 414 cpole~ 0.96559 0.05592;
#X obj 69 440 cpole~ 0.96559 -0.05592;
#X obj 69 463 *~ 0.125;
#X obj 69 486 rzero~ -1;
#X obj 69 509 rzero~ -1;
#X obj 69 532 rzero~ -1;
#X obj 63 97 phasor~;
#X obj 69 566 outlet~;
#X obj 86 151 wrap~;
#X obj 86 127 -~;
#X obj 86 175 *~;
#X obj 63 204 +~;
#X obj 225 186 phasor~;
#X obj 248 240 wrap~;
#X obj 248 216 -~;
#X obj 248 264 *~;
#X obj 225 293 +~;
#X obj 71 297 +~;
#X obj 62 29 inlet;
#X obj 250 34 r osc-params;
#X obj 250 57 unpack 0 0 0 0 0 0;
#X obj 274 104 *~;
#X obj 274 132 +~;
#X msg 341 338 \; osc-params 0.5 -0.5 0.5 0.5 1 0.5;
#X obj 341 312 loadbang;
#X obj 145 43 * 2;
#X obj 457 31 block~ 1024 1 8;
#X connect 0 0 1 0;
#X connect 1 0 2 0;
#X connect 2 0 3 0;
#X connect 3 0 4 0;
#X connect 3 1 4 1;
#X connect 4 0 5 0;
#X connect 5 0 6 0;
#X connect 6 0 7 0;
#X connect 7 0 8 0;
#X connect 8 0 10 0;
#X connect 9 0 12 0;
#X connect 9 0 14 0;
#X connect 11 0 13 0;
#X connect 12 0 11 0;
#X connect 13 0 14 1;
#X connect 14 0 20 0;
#X connect 15 0 17 0;
#X connect 15 0 19 0;
#X connect 16 0 18 0;
#X connect 17 0 16 0;
#X connect 18 0 19 1;
#X connect 19 0 20 1;
#X connect 20 0 0 0;
#X connect 21 0 9 0;
#X connect 21 0 28 0;
#X connect 22 0 23 0;
#X connect 23 0 12 1;
#X connect 23 1 13 1;
#X connect 23 2 17 1;
#X connect 23 3 18 1;
#X connect 23 4 24 1;
#X connect 23 5 25 1;
#X connect 24 0 25 0;
#X connect 25 0 15 0;
#X connect 27 0 26 0;
#X connect 28 0 24 0;
#X restore 137 447 pd dlphas;
#X obj 112 318 * 633;
#X obj 379 326 s syntyp;
#X obj 542 158 s instyp;
#X msg 542 139 symbol sUbtr;
#X msg 380 307 symbol subtr;
#X msg 15 335 0;
#X msg 72 399 1;
#X obj 65 425 change;
#X floatatom 64 446 5 0 0 0 - - -;
#X msg 45 399 0;
#X obj 151 576 dac~;
#X obj 173 363 notein;
#X obj 201 47 ctlin 14;
#X obj 261 46 ctlin 15;
#X obj 317 38 ctlin 16;
#X obj 370 39 ctlin 17;
#X obj 371 73 / 127;
#X obj 315 73 / 127;
#X obj 263 79 / 127;
#X obj 211 82 / 127;
#X msg 386 362 \; pd dsp 1;
#X connect 0 0 1 0;
#X connect 1 0 5 1;
#X connect 2 0 3 1;
#X connect 3 0 101 0;
#X connect 4 0 107 0;
#X connect 5 0 3 0;
#X connect 5 1 3 0;
#X connect 6 0 1 1;
#X connect 7 1 4 0;
#X connect 7 2 9 0;
#X connect 9 0 2 0;
#X connect 9 0 2 1;
#X connect 9 0 13 0;
#X connect 10 0 118 0;
#X connect 10 0 118 1;
#X connect 11 0 105 0;
#X connect 11 0 114 0;
#X connect 12 0 9 3;
#X connect 12 0 9 5;
#X connect 13 0 0 0;
#X connect 13 0 0 1;
#X connect 14 0 104 0;
#X connect 14 0 94 0;
#X connect 14 0 67 0;
#X connect 14 0 128 0;
#X connect 17 0 96 0;
#X connect 18 0 97 0;
#X connect 19 0 98 0;
#X connect 40 0 41 0;
#X connect 40 0 113 0;
#X connect 41 0 18 0;
#X connect 41 0 17 0;
#X connect 41 0 19 0;
#X connect 41 0 60 0;
#X connect 43 0 44 0;
#X connect 44 0 17 0;
#X connect 45 0 18 0;
#X connect 46 0 45 0;
#X connect 48 0 19 0;
#X connect 49 0 47 0;
#X connect 50 0 48 0;
#X connect 51 0 100 0;
#X connect 52 0 17 0;
#X connect 53 0 18 0;
#X connect 54 0 51 0;
#X connect 55 0 19 0;
#X connect 56 0 63 0;
#X connect 56 0 112 0;
#X connect 56 1 64 0;
#X connect 57 0 70 0;
#X connect 58 0 62 0;
#X connect 59 0 65 0;
#X connect 59 1 66 0;
#X connect 60 0 61 0;
#X connect 62 1 59 0;
#X connect 63 0 71 0;
#X connect 64 0 71 0;
#X connect 65 0 68 0;
#X connect 66 0 68 0;
#X connect 67 0 55 1;
#X connect 67 0 54 1;
#X connect 67 0 53 1;
#X connect 67 0 52 1;
#X connect 68 0 71 0;
#X connect 68 1 71 1;
#X connect 69 0 56 1;
#X connect 70 0 56 0;
#X connect 70 1 69 0;
#X connect 71 0 72 0;
#X connect 72 0 73 0;
#X connect 72 0 90 0;
#X connect 72 0 111 0;
#X connect 72 1 74 0;
#X connect 73 0 67 0;
#X connect 74 0 67 0;
#X connect 90 0 89 0;
#X connect 90 0 93 0;
#X connect 90 0 92 0;
#X connect 90 0 91 0;
#X connect 94 0 9 2;
#X connect 95 0 6 0;
#X connect 96 0 95 0;
#X connect 97 0 99 0;
#X connect 97 0 106 0;
#X connect 98 0 108 0;
#X connect 99 0 5 2;
#X connect 100 0 103 0;
#X connect 101 0 10 0;
#X connect 102 0 9 4;
#X connect 103 0 9 2;
#X connect 104 0 9 1;
#X connect 104 0 9 4;
#X connect 105 0 7 0;
#X connect 105 1 7 1;
#X connect 106 0 101 1;
#X connect 107 0 5 0;
#X connect 108 0 12 0;
#X connect 111 0 110 0;
#X connect 112 0 109 0;
#X connect 114 0 115 0;
#X connect 115 0 116 0;
#X connect 117 0 115 0;
#X connect 119 0 7 0;
#X connect 119 1 7 1;
#X connect 120 0 127 0;
#X connect 121 0 126 0;
#X connect 122 0 125 0;
#X connect 123 0 124 0;
#X connect 124 0 55 0;
#X connect 125 0 54 0;
#X connect 126 0 53 0;
#X connect 127 0 52 0;
#X coords 0 -1 1 1 100 185 2 100 100;
